# File created by Blade
# Date/Time:  Wed Jan 21 19:03:07 2015
# Frame Rate: 120.000 fps
#------------------------------------------------------
:FULLY-SPECIFIED
:DEGREES
1606
root -3.954436 29.384569 -6.245951 116.846205 -6.728484 5.913462
RightUpLeg -118.745117 -21.443334 29.844377
RightLeg -13.217024 -0.000000 0.000000
RightFoot 7.290153 6.786294 47.003054
RightToeBase 23.225392 -0.000000 -0.000000
LeftUpLeg -108.752685 11.449581 -24.771662
LeftLeg -10.785801 -0.000000 0.000000
LeftFoot 4.949841 -12.792332 -27.124582
LeftToeBase 5.706252 -0.000000 -0.000000
Spine 65.437417 -16.911144 1.277075
RightShoulder 6.854700 27.474896 -62.047074
RightArm 37.585324 31.986291 86.480535
RightForeArm 18.860084 -0.000000 114.133077
RightHand 23.120768 -0.000000 -65.342489
RightHandThumb1 -24.326973 -0.000000 -32.862282
LeftShoulder 14.518156 40.293568 10.695196
LeftArm 168.056525 -64.976523 -135.649055
LeftForeArm -10.711406 -0.000000 97.653431
LeftHand -43.099060 -0.000000 78.728790
LeftHandThumb1 -26.253704 0.000000 33.147579
Head 25.727357 6.808071 -37.464019
1607
root -3.954050 29.382033 -6.244792 116.818511 -6.699185 5.921607
RightUpLeg -118.696311 -21.442282 29.884657
RightLeg -13.263223 -0.000000 0.000000
RightFoot 7.354894 6.840711 46.971198
RightToeBase 23.043259 -0.000000 -0.000000
LeftUpLeg -108.715328 11.461803 -24.753405
LeftLeg -10.819409 -0.000000 0.000000
LeftFoot 4.966233 -12.807822 -27.164057
LeftToeBase 5.784320 -0.000000 -0.000000
Spine 65.512041 -16.928782 1.284369
RightShoulder 6.839414 27.546913 -62.119595
RightArm 37.521542 32.039735 86.512077
RightForeArm 18.892918 -0.000000 114.200435
RightHand 23.154793 -0.000000 -65.308189
RightHandThumb1 -24.326973 -0.000000 -32.862282
LeftShoulder 14.467493 40.288195 10.645325
LeftArm 168.142585 -64.903393 -135.710342
LeftForeArm -10.859950 -0.000000 97.668139
LeftHand -43.095067 -0.000000 78.764106
LeftHandThumb1 -26.253704 0.000000 33.147579
Head 25.676090 6.779113 -37.554361
1608
root -3.953382 29.379919 -6.245176 116.805557 -6.678173 5.923241
RightUpLeg -118.669770 -21.439073 29.913475
RightLeg -13.292286 -0.000000 0.000000
RightFoot 7.350467 6.864042 46.880326
RightToeBase 23.062968 -0.000000 -0.000000
LeftUpLeg -108.705493 11.463618 -24.763895
LeftLeg -10.841245 -0.000000 0.000000
LeftFoot 4.998281 -12.841664 -27.182077
LeftToeBase 5.766109 -0.000000 -0.000000
Spine 65.570664 -16.958894 1.287532
RightShoulder 6.801317 27.605198 -62.261157
RightArm 37.448530 32.076672 86.571944
RightForeArm 18.879905 -0.000000 114.281691
RightHand 23.075687 -0.000000 -65.730963
RightHandThumb1 -24.326973 -0.000000 -32.862282
LeftShoulder 14.393052 40.304355 10.574074
LeftArm 168.239967 -64.839072 -135.791438
LeftForeArm -10.983144 0.000000 97.684022
LeftHand -43.035754 -0.000000 78.824874
LeftHandThumb1 -26.253704 0.000000 33.147579
Head 25.553721 6.715413 -37.738889
1609
root -3.954053 29.379545 -6.249038 116.787103 -6.660228 5.924464
RightUpLeg -118.641673 -21.447527 29.913362
RightLeg -13.308611 -0.000000 0.000000
RightFoot 7.354340 6.860209 46.849926
RightToeBase 23.050550 -0.000000 -0.000000
LeftUpLeg -108.707956 11.461895 -24.786034
LeftLeg -10.846091 -0.000000 0.000000
LeftFoot 5.042933 -12.868154 -27.264654
LeftToeBase 5.820345 -0.000000 -0.000000
Spine 65.577376 -16.959467 1.298784
RightShoulder 6.885651 27.579815 -62.299718
RightArm 37.397283 32.195502 86.575094
RightForeArm 18.955754 -0.000000 114.357046
RightHand 23.089653 0.000000 -65.768757
RightHandThumb1 -24.326973 -0.000000 -32.862282
LeftShoulder 14.448444 40.329670 10.591146
LeftArm 168.441565 -64.879353 -136.004654
LeftForeArm -11.077347 -0.000000 97.683287
LeftHand -42.865768 -0.000000 78.878072
LeftHandThumb1 -26.253704 0.000000 33.147579
Head 25.506391 6.616516 -38.014095
1610
root -3.954124 29.377963 -6.250540 116.784356 -6.650796 5.924232
RightUpLeg -118.652323 -21.433880 29.945497
RightLeg -13.298047 -0.000000 0.000000
RightFoot 7.354823 6.895112 46.888804
RightToeBase 23.135716 -0.000000 -0.000000
LeftUpLeg -108.716101 11.461326 -24.808515
LeftLeg -10.853121 -0.000000 0.000000
LeftFoot 5.072120 -12.904932 -27.347344
LeftToeBase 5.866663 -0.000000 -0.000000
Spine 65.629479 -16.976534 1.305974
RightShoulder 6.806602 27.643352 -62.440046
RightArm 37.285055 32.219131 86.628017
RightForeArm 18.989161 -0.000000 114.461536
RightHand 23.048587 -0.000000 -65.645214
RightHandThumb1 -24.326973 -0.000000 -32.862282
LeftShoulder 14.355297 40.337769 10.500178
LeftArm 168.572737 -64.827730 -136.114012
LeftForeArm -11.334033 -0.000000 97.711706
LeftHand -42.817040 0.000000 78.747307
LeftHandThumb1 -26.253704 0.000000 33.147579
Head 25.544440 6.688912 -37.892314
1611
root -3.953082 29.378090 -6.252487 116.757379 -6.630798 5.930177
RightUpLeg -118.637871 -21.440138 29.974919
RightLeg -13.292565 -0.000000 0.000000
RightFoot 7.399456 6.929482 46.918175
RightToeBase 23.089834 -0.000000 -0.000000
LeftUpLeg -108.682585 11.489343 -24.751946
LeftLeg -10.879126 -0.000000 0.000000
LeftFoot 5.097550 -12.872667 -27.432838
LeftToeBase 5.914867 -0.000000 -0.000000
Spine 65.691755 -17.004486 1.324852
RightShoulder 6.784013 27.627223 -62.622965
RightArm 37.189222 32.342007 86.705586
RightForeArm 19.077481 0.000000 114.583215
RightHand 23.065759 -0.000000 -65.459618
RightHandThumb1 -24.326973 -0.000000 -32.862282
LeftShoulder 14.278944 40.342895 10.425016
LeftArm 168.664130 -64.795020 -136.191758
LeftForeArm -11.436549 0.000000 97.716212
LeftHand -42.860769 -0.000000 78.765383
LeftHandThumb1 -26.253704 0.000000 33.147579
Head 25.449419 6.678777 -37.981177
1612
root -3.952710 29.379502 -6.254797 116.725118 -6.607059 5.951755
RightUpLeg -118.623314 -21.465013 29.997414
RightLeg -13.278078 -0.000000 0.000000
RightFoot 7.390543 6.939040 46.991378
RightToeBase 23.186185 -0.000000 -0.000000
LeftUpLeg -108.705153 11.471788 -24.772782
LeftLeg -10.812494 -0.000000 0.000000
LeftFoot 5.118660 -12.952083 -27.497520
LeftToeBase 5.998046 -0.000000 -0.000000
Spine 65.748537 -17.038607 1.342138
RightShoulder 6.708815 27.760336 -62.646507
RightArm 37.115739 32.263359 86.648240
RightForeArm 19.067203 -0.000000 114.559281
RightHand 23.048305 0.000000 -65.625627
RightHandThumb1 -24.326973 -0.000000 -32.862282
LeftShoulder 14.211164 40.350541 10.355730
LeftArm 168.770639 -64.799813 -136.280512
LeftForeArm -11.483768 -0.000000 97.703417
LeftHand -43.005560 0.000000 78.696235
LeftHandThumb1 -26.253704 0.000000 33.147579
Head 25.374779 6.679223 -38.044194
1613
root -3.953253 29.381359 -6.260090 116.704838 -6.601102 5.960165
RightUpLeg -118.632681 -21.478381 29.998132
RightLeg -13.240969 -0.000000 0.000000
RightFoot 7.383723 6.961966 46.968364
RightToeBase 23.208011 -0.000000 -0.000000
LeftUpLeg -108.701425 11.492040 -24.716672
LeftLeg -10.782432 -0.000000 0.000000
LeftFoot 5.145799 -12.936762 -27.239680
LeftToeBase 5.562215 -0.000000 -0.000000
Spine 65.753494 -17.052409 1.344240
RightShoulder 6.722014 27.773097 -62.661438
RightArm 37.095901 32.267849 86.625483
RightForeArm 19.078114 -0.000000 114.554077
RightHand 23.044925 0.000000 -65.702405
RightHandThumb1 -24.326973 -0.000000 -32.862282
LeftShoulder 14.214903 40.360694 10.356263
LeftArm 168.819289 -64.822120 -136.364491
LeftForeArm -11.554213 -0.000000 97.711588
LeftHand -42.978359 -0.000000 78.657074
LeftHandThumb1 -26.253704 0.000000 33.147579
Head 25.415063 6.691010 -38.006033
1614
root -3.954313 29.383804 -6.264162 116.677230 -6.585728 5.968881
RightUpLeg -118.625602 -21.499081 29.992046
RightLeg -13.201301 -0.000000 0.000000
RightFoot 7.384117 6.981938 46.971942
RightToeBase 23.107633 -0.000000 -0.000000
LeftUpLeg -108.704631 11.513986 -24.667723
LeftLeg -10.737040 -0.000000 0.000000
LeftFoot 5.148418 -12.928265 -27.252143
LeftToeBase 5.539476 -0.000000 -0.000000
Spine 65.794310 -17.077916 1.337695
RightShoulder 6.692343 27.837286 -62.743877
RightArm 37.023658 32.270244 86.637992
RightForeArm 19.079675 -0.000000 114.560239
RightHand 23.068512 0.000000 -65.719784
RightHandThumb1 -24.326973 -0.000000 -32.862282
LeftShoulder 14.130287 40.351574 10.301906
LeftArm 168.791871 -64.823097 -136.361120
LeftForeArm -11.583204 -0.000000 97.721099
LeftHand -43.024696 0.000000 78.574591
LeftHandThumb1 -26.253704 0.000000 33.147579
Head 25.336578 6.681620 -38.105764
1615
root -3.956039 29.385998 -6.268833 116.662124 -6.579063 5.976499
RightUpLeg -118.656587 -21.497887 30.015395
RightLeg -13.143342 -0.000000 0.000000
RightFoot 7.383105 7.001008 47.059253
RightToeBase 23.262201 -0.000000 -0.000000
LeftUpLeg -108.725556 11.513969 -24.659504
LeftLeg -10.688157 -0.000000 0.000000
LeftFoot 5.146834 -12.923091 -27.270804
LeftToeBase 5.567995 -0.000000 -0.000000
Spine 65.800201 -17.083287 1.332894
RightShoulder 6.696922 27.819984 -62.770580
RightArm 36.995352 32.288951 86.624725
RightForeArm 19.108676 -0.000000 114.575119
RightHand 23.045581 -0.000000 -65.666444
RightHandThumb1 -24.326973 -0.000000 -32.862282
LeftShoulder 14.106428 40.365489 10.292181
LeftArm 168.815571 -64.823011 -136.376667
LeftForeArm -11.581104 0.000000 97.709622
LeftHand -43.060338 -0.000000 78.613828
LeftHandThumb1 -26.253704 0.000000 33.147579
Head 25.388923 6.733091 -38.025743
1616
root -3.957749 29.388659 -6.272485 116.645223 -6.567651 5.976533
RightUpLeg -118.668595 -21.492579 30.025233
RightLeg -13.095036 -0.000000 0.000000
RightFoot 7.413178 7.016907 47.206393
RightToeBase 23.239289 -0.000000 -0.000000
LeftUpLeg -108.757753 11.511304 -24.682682
LeftLeg -10.631859 -0.000000 0.000000
LeftFoot 5.169542 -12.968918 -27.290458
LeftToeBase 5.597800 -0.000000 -0.000000
Spine 65.820335 -17.085611 1.331005
RightShoulder 6.699207 27.830569 -62.855148
RightArm 36.897348 32.351904 86.629906
RightForeArm 19.209849 -0.000000 114.635835
RightHand 23.016956 -0.000000 -65.677574
RightHandThumb1 -24.326973 -0.000000 -32.862282
LeftShoulder 14.058245 40.368049 10.266910
LeftArm 168.841776 -64.841632 -136.394836
LeftForeArm -11.649996 -0.000000 97.692882
LeftHand -43.048510 -0.000000 78.611720
LeftHandThumb1 -26.253704 0.000000 33.147579
Head 25.382717 6.746007 -38.042658
